<svg version="1.1" preserveAspectRatio="none" xmlns="http://www.w3.org/2000/svg" width="500" height="500" viewBox="0 0 500 500"><rect width="100%" height="100%" fill="#000000" fill-opacity="1"/><svg viewBox="-326.9111 362.3728 236.5715 222" width="333" height="312.48903608422825" x="83.5px" y="93.7555px" xmlns="http://www.w3.org/2000/svg" xmlns:xlink="http://www.w3.org/1999/xlink" preserveAspectRatio="none"><defs></defs><style>.aRWrrEA-PR0filter-floo {flood-color:#E9B0D6;flood-opacity:0.5;}.atUk6sjh6M0filter-floo {flood-color:#FFFFFF;flood-opacity:0.89;}.companyName {fill:#FFFFFF;fill-opacity:1;}.icon3 {fill:#F55139;fill-opacity:1;}.icon3-str {stroke:#F55139;stroke-opacity:1;}.shape-floo {flood-color:#2525CE;flood-opacity:1;}</style><defs>
      <filter
        x="-326.9111"
        y="362.3728"
        width="236.5715"
        height="222"
        id="ikYEXSHZT"
        filterUnits="userSpaceOnUse"
        primitiveUnits="userSpaceOnUse"
        color-interpolation-filters="sRGB">
        
    <feGaussianBlur in="SourceGraphic" stdDeviation="7"/>
    <feOffset dx="3.860375059564381" dy="3.860375059564381" result="vM9iAYXTYU1"/>
    <feFlood flood-color="#2525CE" flood-opacity="1" in="vM9iAYXTYU1" />
    <feComposite  in2="vM9iAYXTYU1" operator="in" result="a4Z4OGrbYh26"/><feMerge result="a6r1jwCztrVT"><feMergeNode in="a4Z4OGrbYh26" /><feMergeNode in="SourceGraphic" /></feMerge><feGaussianBlur  result="kw4wRqXFdki" stdDeviation="10" />
      </filter>
      <filter
        x="-291.771"
        y="397.5124"
        width="158.5705"
        height="144"
        id="tUk6sjh6M"
        filterUnits="userSpaceOnUse"
        primitiveUnits="userSpaceOnUse"
        color-interpolation-filters="sRGB">
        
    <feGaussianBlur in="SourceGraphic" stdDeviation="4"/>
    <feOffset dx="0" dy="0" result="Z0JTXwOB5R3"/>
    <feFlood flood-color="#FFFFFF" flood-opacity="0.89" in="Z0JTXwOB5R3" />
    <feComposite  in2="Z0JTXwOB5R3" operator="in" result="SHUhZL-i3oe"/><feMerge result="oR7upVFC-J0"><feMergeNode in="SHUhZL-i3oe" /><feMergeNode in="SourceGraphic" /></feMerge>
      </filter></defs><g filter="url(#ikYEXSHZT)"><g opacity="1" transform="rotate(0 -279.7715 409.5124)">
<svg width="134.5715" height="120" x="-279.7715" y="409.5124" version="1.1" preserveAspectRatio="none" viewBox="-2.52 -28 31.4 28">
  <g transform="matrix(1 0 0 1 0 0)" class="icon3"><path id="id-BEGfasMba1" d="M22.40 0L21.08-6L8.04-6L4.40 0L-2.52 0L15.60-28L22-28L28.88 0L22.40 0ZM11.04-10.92L20-10.92L17.64-21.72L11.04-10.92Z"/></g>
</svg>
</g></g><g filter="url(#tUk6sjh6M)"><g opacity="1" transform="rotate(0 -279.771 409.5124)">
<svg width="134.5705" height="120" x="-279.771" y="409.5124" version="1.1" preserveAspectRatio="none" viewBox="-0.36 -28 31.4 28">
  <g transform="matrix(1 0 0 1 0 0)" class="companyName"><path id="id-D6z1nYkh1" d="M24.24 0L21.76-6L8.76-6L6.28 0L-0.36 0L12.12-28L18.52-28L31.04 0L24.24 0ZM10.84-10.92L19.72-10.92L15.28-21.64L10.84-10.92Z"/></g>
</svg>
</g></g></svg></svg>